/* XPM */
static char *_532361889811[] = {
/* columns rows colors chars-per-pixel */
"64 64 255 2 ",
"   c #010107",
".  c #0C0A0B",
"X  c #18150C",
"o  c #000418",
"O  c #0C111E",
"+  c #1A1113",
"@  c #1A1A1B",
"#  c #211F0F",
"$  c #1A2619",
"%  c #28270D",
"&  c #342E09",
"*  c #2F300C",
"=  c #35340B",
"-  c #2A2719",
";  c #293618",
":  c #363918",
">  c #131928",
",  c #231F2C",
"<  c #17232D",
"1  c #232927",
"2  c #2A322B",
"3  c #313124",
"4  c #232A36",
"5  c #28333E",
"6  c #383833",
"7  c #413C0C",
"8  c #3A4318",
"9  c #474605",
"0  c #4E4B0F",
"q  c #5F4D07",
"w  c #5B590E",
"e  c #464914",
"r  c #4C5616",
"t  c #555311",
"y  c #665D0D",
"u  c #596512",
"i  c #686909",
"p  c #796807",
"a  c #6F730B",
"s  c #7D7E0B",
"d  c #646E1A",
"f  c #756A13",
"g  c #677A16",
"h  c #777D1E",
"j  c #4D4D30",
"k  c #6B7130",
"l  c #36394B",
"z  c #3D4052",
"x  c #424042",
"c  c #505449",
"v  c #606350",
"b  c #707356",
"n  c #555A67",
"m  c #5E6171",
"M  c #696E76",
"N  c #867508",
"B  c #827B6C",
"V  c #798910",
"C  c #888807",
"Z  c #968407",
"A  c #8F910B",
"S  c #98960A",
"D  c #909910",
"F  c #A79005",
"G  c #A39E00",
"H  c #B59705",
"J  c #B19B05",
"K  c #B79B05",
"L  c #B89C00",
"P  c #B99D00",
"I  c #BA9F00",
"U  c #B99D05",
"Y  c #BC9F05",
"T  c #B59C17",
"R  c #9FA009",
"E  c #A7A708",
"W  c #BCA101",
"Q  c #BFA401",
"!  c #BAA005",
"~  c #BCA105",
"^  c #BDA305",
"/  c #B1AF02",
"(  c #BEA40A",
")  c #B7BA07",
"_  c #B2B00A",
"`  c #B0B708",
"'  c #B9A114",
"]  c #B29E29",
"[  c #AB9736",
"{  c #C1A603",
"}  c #C5AA04",
"|  c #CAAD03",
" . c #C7B104",
".. c #CBB203",
"X. c #CCB804",
"o. c #C1BF0A",
"O. c #D6B902",
"+. c #C1A915",
"@. c #C9B814",
"#. c #C4AD23",
"$. c #C8B129",
"%. c #D5BC2C",
"&. c #CAB536",
"*. c #D6BF34",
"=. c #BDC306",
"-. c #C2C400",
";. c #C7C601",
":. c #C3C906",
">. c #C6CD06",
",. c #C5C30B",
"<. c #CAC80A",
"1. c #D1C003",
"2. c #D6C702",
"3. c #DFC302",
"4. c #DDCD02",
"5. c #D3C70A",
"6. c #D1CE0A",
"7. c #CDD206",
"8. c #D2D704",
"9. c #DFD301",
"0. c #D5D804",
"q. c #D7DB04",
"w. c #D6D30A",
"e. c #DDD20C",
"r. c #E3D906",
"t. c #DAE003",
"y. c #E5E202",
"u. c #EEE201",
"i. c #E4E802",
"p. c #EDEB01",
"a. c #F4EB01",
"s. c #EDF002",
"d. c #F3F401",
"f. c #F8F501",
"g. c #F5F801",
"h. c #F8FA01",
"j. c #FCFB00",
"k. c #F9FD00",
"l. c #FBFC00",
"z. c #FBFF00",
"x. c yellow",
"c. c #FAFF07",
"v. c #FEFF06",
"b. c #F3F50F",
"n. c #F6FA0E",
"m. c #FCFE0E",
"M. c #ECEE19",
"N. c #FCFE18",
"B. c #D7C020",
"V. c #D9C63E",
"C. c #E8D03A",
"Z. c #E3E829",
"A. c #FAFC26",
"S. c #EDE930",
"D. c #F2F030",
"F. c #FFFE39",
"G. c #948748",
"H. c #A19250",
"J. c #B5AC53",
"K. c #8B8A66",
"L. c #928E62",
"P. c #9D9367",
"I. c #948C7A",
"U. c #A49A69",
"Y. c #A09B77",
"T. c #ABA46A",
"R. c #AEA76F",
"E. c #B3A46F",
"W. c #B6AF75",
"Q. c #BDB475",
"!. c #CEBA41",
"~. c #C7BD7A",
"^. c #C0B87F",
"/. c #CAC34D",
"(. c #F9E25F",
"). c #F5F756",
"_. c #DAC968",
"`. c #CEC37C",
"'. c #DACC74",
"]. c #DDCF7C",
"[. c #E6D87A",
"{. c #FAFA6B",
"}. c #665B92",
"|. c #6A6789",
" X c #776D89",
".X c #787782",
"XX c #6C629F",
"oX c #71679C",
"OX c #7C749A",
"+X c #685CA0",
"@X c #756BA8",
"#X c #827AA1",
"$X c #83818C",
"%X c #948A84",
"&X c #9D9885",
"*X c #898894",
"=X c #8C8F97",
"-X c #959190",
";X c #93959F",
":X c #B4A987",
">X c #8781A7",
",X c #8E88AD",
"<X c #9A9BA3",
"1X c #9D9FA7",
"2X c #948CB8",
"3X c #8890BC",
"4X c #9D95B5",
"5X c #A19ABA",
"6X c #A5A6A9",
"7X c #AAABB6",
"8X c #AFAFB4",
"9X c #BFBDBC",
"0X c #DCD089",
"qX c #E0D386",
"wX c #E2D58C",
"eX c #E6D98B",
"rX c #EBDD8A",
"tX c #E4D896",
"yX c #EEE08F",
"uX c #EEE097",
"iX c #F2E490",
"pX c #F3E595",
"aX c #FFF296",
"sX c #9E97C1",
"dX c #98A9D7",
"fX c #AEA9C9",
"gX c #AFBCE2",
"hX c #C0BBCF",
"jX c #BEC0C4",
"kX c #C2C8C9",
"lX c #CCCDCF",
"zX c #C6C2D8",
"xX c #D2D2D6",
"cX c #D8D8DC",
"vX c #DCDFDE",
"bX c #CAE8C8",
"nX c #ECEED0",
"mX c #C6CAE1",
"MX c #DCD9E6",
"NX c #CCD2F6",
"BX c #D6D3F0",
"VX c #E0DCE5",
"CX c #E3E3E4",
"ZX c #E6E6E9",
"AX c #E7E9E9",
"SX c #ECECED",
"DX c #EEEDF0",
"FX c #EFF0F0",
"GX c #F4F4F5",
"HX c #F7F7F8",
"JX c #FBFBFB",
"KX c #F9FAFF",
"LX c #FFFBFF",
"PX c white",
"IX c None",
/* pixels */
"IXIXIXIXIXIXIXIXIXIXIXIXIXIXIXIXIXIXIXIXIXIXIXIXIXIXIXIXIXIXIXIXIXIXIXIXIXIXIXIXIXIXIXIXIXIXIXIXIXIXIXIXIXIXIXIXIXIXIXIXIXIXIXIX",
"IXIXIXIXIXIXIXIXIXIXIXIXIXIXIXIXIXIXIXIXIXIXIXIXIXIXIXIXIXIXIXIXIXIXIXIXIXIXIXIXIXIXIXIXIXIXIXIXIXIXIXIXIXIXIXIXIXIXIXIXIXIXIXIX",
"IXIXIXIXIXIXIXIXIXIXIXIXIXIXIXIXIXIXIXIXIXIXIXSXDXvXl 2 4 1 - - 1 3 3 2 3 2 2 1 jXDXDXJXIXIXIXIXIXIXIXIXIXIXIXIXIXIXIXIXIXIXIXIX",
"IXIXIXIXIXIXIXIXIXIXIXIXIXIXIXIXIXIXIXIXIXIXkXl 4 l T.~.Q.6 i y   t a 7 8.q.q.q.j 5 5 1XIXIXIXIXIXIXIXIXIXIXIXIXIXIXIXIXIXIXIXIX",
"IXIXIXIXIXIXIXIXIXIXIXIXIXIXIXIXIXIX*Xl l l c W.W.T.j x j X C a   y S X t 9 y g.q.o.:.k l *XIXIXIXIXIXIXIXIXIXIXIXIXIXIXIXIXIXIX",
"IXIXIXIXIXIXIXIXIXIXIXIXIXIXIXIXIX$Xb R.U.P.W.rXV.#.# i C C E E A E ) A C i . 9 i.x.x.t._ h $XIXIXIXIXIXIXIXIXIXIXIXIXIXIXIXIXIX",
"IXIXIXIXIXIXIXIXIXIXIXIXIXIXIX.Xm O L.aXpXpX[.#.{ F * r y E 6.C w w t w a o.s X S f.x.x.x.p.g >XIXIXIXIXIXIXIXIXIXIXIXIXIXIXIXIX",
"IXIXIXIXIXIXIXIXIXIXIXIXIXIX*Xv B b W.iX_.!.$.W { U N y + s w.w   o .   # ) ,.: N f.x.x.k.x.p.k ,XIXIXIXIXIXIXIXIXIXIXIXIXIXIXIX",
"IXIXIXIXIXIXIXIXIXIXIXIXDX$Xo ~.aXiXeX_.#.L I ^ ^ ( | | & s w.w     o   # ) ,.: N 4.f.x.k.k.x.s.i *XIXIXIXIXIXIXIXIXIXIXIXIXIXIX",
"IXIXIXIXIXIXIXIXIXIXIXIXZXo c `.rXqXwX!.L ( ^ ^ ^ ^ { ^ & s 6.s 0 t t 0 i _ s # Z | 1.f.x.x.x.x.g.u ;XIXIXIXIXIXIXIXIXIXIXIXIXIX",
"IXIXIXIXIXIXIXIXIXIXIXJX<Xc qXrXqXqXwX!.I ^ ^ ^ ^ ^ { Y & s <.<.6.6.6.6.w._ +   y ! Y 1.a.k.k.x.x.h.u <XFXIXIXIXIXIXIXIXIXIXIXIX",
"IXIXIXIXIXIXIXIXIXIXFX1Xc ].eXwXwXwXtX!.I ^ ^ ^ ^ ^ { Y & s <.E A S S S S A 7 = X N | { r.x.k.k.k.x.g.$ xXIXIXIXIXIXIXIXIXIXIXIX",
"IXIXIXIXIXIXIXIXIXIX9X2 qXeXqX'.'.'.].&.I ^ ^ ^ ^ ^ } } & s w.y   X X X . # _ o.= p { 9.x.k.x.k.x.x.g.r 7XGXIXIXIXIXIXIXIXIXIXIX",
"IXIXIXIXIXIXIXIXIXHX6Xx eXeX].#.( { ( ( ^ ^ ^ ^ ^ Y J F % s w.w   . . .   X _ <.= p | r.x.x.k.k.k.k.x.d.8 jXIXIXIXIXIXIXIXIXIXIX",
"IXIXIXIXIXIXIXIXIXgXx ].qXwX].+.I I I ^ ^ { { W } J & # # A w.i X # # # X * _ ) * N u.x.x.x.x.x.k.k.x.x.e 7XJXIXIXIXIXIXIXIXIXIX",
"IXIXIXIXIXIXIXIXIXdXj rXqXwX].+.^ ^ ^ ^ ^ W ^ ^ } F - s E _ o.E R R R R R E _ 7 X / x.x.k.k.k.k.x.x.k.x.y.j 8XIXIXIXIXIXIXIXIXIX",
"IXIXIXIXIXIXIXIX7Xm ~.qXqXwXqX+.I ^ ^ { [ %XI.%X&XB % = 9 = A C = s E 9 9 = = . z I.Y.Y.&X/.x.k.k.k.k.x.k.u <XIXIXIXIXIXIXIXIXIX",
"IXIXIXIXIXIXIXIX$Xc iX[.wXqX&.^ ^ ^ { [ OXXXXXXXXX}.z z n O C i   w A + p C C v }.XX}.+X+XOX/.x.k.x.k.x.x.r 1XIXIXIXIXIXIXIXIXIX",
"IXIXIXIXIXIXIXIX%Xv rXwX].&.I W ^ } [  X2XzXzXzXzXzXhX}.|.< & % o % % 7 r.J.T. XfXzXzXzX2X+X*X/.x.k.x.x.x.r 1XIXIXIXIXIXIXIXIXIX",
"IXIXIXIXIXIXIXIX$Xc rXwX'.W W ^ { [ OX2XMXLXLXLXLXLXLXhX Xn j i p y q Z n.>X+XfXHXLXLXLXZX4XXX&Xx.x.k.x.x.r 1XIXIXcX.X<XIXIXIXIX",
"IXIXIXIXIXIXIXIX$Xc rXwX'.( W ^ [ *XXXhXLXLXLXLXLXLXLXLX,X@XJ...| { O.y.J.OXfXKXLXLXLXLXLXBX}.-XV.k.x.x.x.8 7XIXcXv s d =XIXIXIX",
"IXIXIXIXIXIXIXIX$Xv iXeX'.( W ^ *X>X|.hXLXLXLXLXLXLXLXLX,XB ] { Y } y.Z.@X@XLXLXLXLXLXLXSX5X|.#X=Xg.x.x.x.D b 1Xm E v.8.$ IXIXIX",
"IXIXIXIXIXIXIXIX*X6 R.eX'.^ I U H.>X@X5XSXLXLXLXLXLXLXMX#X[ } W U 2.v.M.Y.@XzXLXLXLXLXSX4X}.OX#X-Xc.x.k.k.x.D e E x.x.:.1 IXIXIX",
"IXIXIXIXIXIXIXIX;XO v eX].$.X.X.} H.%X XsXMXMXMXMXMXcX#X.X] { ^ U 2.x.x.n.Y.oXzXBXBXMX5X}.OX>X%XU.p.v.x.x.k.x.x.x.x.x.:.1 IXIXIX",
"IXIXJXvXcXcXcXcX.Xj rXqX0X[.m.k.X.U { H.OXXXoXoXoXoXoX#X] W ^ ^ U O.f.x.x.b.Y.$XB $X XOX>X>XP.^ U } p.d.k.k.x.x.s.i.x.>.1 IXIXIX",
"IXIXvX5 < 4 2 4 @ v iXqX0X[.n.k.X.! Q { H.$X$X$X$X$X$X>X] | { ^ ^ ! O.x.x.x.g.d.b.d.J.#X>XP.{ W Q ^ ^ { p.x.k.x.V u x.:.1 IXIXIX",
"IXIXSX4 U.0X~.~.`.`.qXqXwX'.@.d.1.! ^ Q ( ' ' ' ' ' ' I.[ I ^ { ^ ^ ! X.d.x.x.x.x.x.5.T ' ^ W ^ ^ ^ U Y p.x.k.g.a 9 x.>.1 IXIXIX",
"IXIXFX5 W.aXv f B.+.&.wXwX'.+.p.f.X.U ^ { { W { W { } T 7 X N | ^ | N $ 9 d.x.k.k.x.2.I Q Q ^ ^ ^ ^ ^ ^ p.x.x.A O g k.:.1 IXIXIX",
"IXIXDX5 R.C.7 o p { $.wXwX].+...X.} ^ ^ ^ ^ ^ ^ ^ { W 7     X p O.N X     9 p.x.x.x.2.K ^ ^ ^ ^ ^ ^ ^ ^ p.x.x.g o g 7.c jXIXIXIX",
"IXIXSX5 W.[.] % e } $.wXwX].+.I ! ! ^ ^ ^ ^ ^ ^ ^ } J .       q 3.y     o   i.x.k.k.d.1.U ^ ^ ^ ^ ^ ! ^ p.x.x.V o a =.z JXIXIXIX",
"IXIXSX< x ^.C.9 e | ( !.wX].' I ^ ^ ^ ^ ^ ^ ^ ^ ^ { U N p p p Z { J R G R E d.x.k.x.y. .U ^ ^ ^ ^ ^ ^ K p.x.k.V o a =.z DXIXIXIX",
"IXIXHX1X, P.C.9 e | +./.wXqXe.Q K ! ^ ^ ^ ^ ^ ^ ^ ^ ^ | | ....{ ..a.x.x.x.x.x.k.k.x.O.K ^ ^ ^ ^ ^ Y I r.g.x.x.g : >.>.5 DXIXIXIX",
"IXIXIXIXl R.(.j 0 ..&.tXqXD.k.r.2...U ^ ^ ^ ^ ^ ^ ^ ^ ^ ^ ( ^ H 4.x.k.k.x.x.k.k.x.x.1.H ^ ^ ^ ^ ^ ^ ^ 4.f.x.k.u g i.k <XGXIXIXIX",
"IXIXIXIX$Xb 0Xv % Z #._.[.D.x.x.x.1.U ^ ^ ^ ^ ^ ^ I I I I I I X.f.x.x.k.k.k.k.x.k.x.y. .! ^ ^ ^ ^ ^ ^ X.f.x.x.R ) ` z IXIXIXIXIX",
"IXIXIXIXIXn L.H.X = Q +.0XqXD.x.x.1.U ^ ^ ^ W I ! $.*.*.*.*.*.@.) 8.x.x.x.x.x.x.x.x.d.1.U ^ ^ ^ ^ K ! d.x.k.x.k.i.h $XIXIXIXIXIX",
"IXIXIXIXIXz L.(.t = | B.rXwXqXD.A.X.L ^ ^ W ^ #.V.eXW.R.E.U.W.j   9 -.) -.;.;.;.k.x.1.H ^ ^ ^ ! { ..X.d.x.k.k.x.D n IXIXIXIXIXIX",
"IXIXIXIXIXM B iXK.0 2.M.~.eXwXqXwX&.^ ^ W W !.wX~.T.O   . 4 < o     . @         E k.r.! U ^ ^ U | k.x.k.x.x.v.s.h .XIXIXIXIXIXIX",
"IXIXIXIXIXHXn b 0XJ.9.=.2 ^.wXqX0XwX&.I ( V.rXU.O . # >   6XM . +   n 8X. + >   . E f.9.W ! ^ U  .k.x.x.s.g.g.h $XHXIXIXIXIXIXIX",
"IXIXIXIXIXIXM > , g j.-.o 1 `.rX0XwX&.I &.eXU..   . 9XcX6 6Xm M B   n 8X- lXxX@   . G d.e.^ ^ U  .k.x.d.e ) V .XHXIXIXIXIXIXIXIX",
"IXIXIXIXIXIXZXcX.Xu x.:.o O `.rXqXwX&.} p - +       6 bXvXc . @ @   . @ , GXFX1     X G.F.9.U U  .x.g.e o =.a <XIXIXIXIXIXIXIXIX",
"IXIXIXIXIXIXIXIX;Xu x.:.O o 6 ~.rXwX&.| q             kXLXx             , CXDXW.T.E.U./.N.y.H  .s.s.r 7Xl =.a =XIXIXIXIXIXIXIXIX",
"IXIXIXIXIXIXIXIX*Xu x.:.5 <X< Q.V.$.+.W ] U.U.U.U.U.U.MXGX:XP.P.P.P.P.P.E.CX).F.F.A.F.m.x.f.2...x.i.< AXn ` q.k 1XIXIXIXIXIXIXIX",
"IXIXIXIXIXIXIXIX$Xd x.8.5 DX5 Q._.+.I ^ $.V.V.V.V.V.V.).nX{.F.F.F.F.F.F.{.nXc.x.x.x.x.k.x.x.g.y.x.i.< ZXz =.v.C m IXIXIXIXIXIXIX",
"IXIXIXIXIXIXIXIXlXb s d 6XZX5 Q.pX$.I ^ W I W I I I Q s.nX).x.x.k.v.x.x.A.nXA.k.k.k.k.x.k.k.x.x.x.d.D .X3Xb s M zXIXIXIXIXIXIXIX",
"IXIXIXIXIXIXIXIXIXcX.X<XIXSX4 `.uX$.W ^ ^ ^ ^ ^ ^ U { h.{.A.k.x.x.k.k.k.N.{.m.k.x.k.k.x.k.k.k.t.R k.x.; NXfXM mXIXIXIXIXIXIXIXIX",
"IXIXIXIXIXIXIXIXIXIXIXIXIXAX> b 0X$.H K U U ^ ^ ^ ^ { 9.r.d.x.k.x.k.k.x.x.k.k.x.x.k.k.x.k.x.x.` $ d.k.; mXIXIXIXIXIXIXIXIXIXIXIX",
"IXIXIXIXIXIXIXIXIXIXIXIXIXFXn O T.C.X.1.O. .U U U U U H  .p.x.k.k.k.k.k.k.k.k.k.k.k.k.k.k.k.x.:.; x.x.; jXIXIXIXIXIXIXIXIXIXIXIX",
"IXIXIXIXIXIXIXIXIXIXIXIXIXIXJX5 R.A.x.x.x.u. .X.X.X.X.X.s.x.x.k.k.x.x.k.k.x.x.k.k.x.x.k.x.k.s.A $ =.:.c xXIXIXIXIXIXIXIXIXIXIXIX",
"IXIXIXIXIXIXIXIXIXIXIXIXIXIXHX5 R.F.v.x.x.k.k.x.x.x.k.x.k.x.k.k.x.k.k.k.x.k.k.k.k.x.x.k.k.x.` O 5 5 l vXIXIXIXIXIXIXIXIXIXIXIXIX",
"IXIXIXIXIXIXIXIXIXIXIXIXIXIXGX5 E.iXS.k.x.x.x.x.g.g.x.x.k.x.k.x.x.k.x.x.k.k.x.x.k.k.k.k.x.x.` l GXGXGXIXIXIXIXIXIXIXIXIXIXIXIXIX",
"IXIXIXIXIXIXIXIXIXIXIXIXIXIXGX5 R.tX&.r.j.h.j.p.{  .d.h.k.x.k.k.g.k.x.k.k.x.k.k.x.k.k.x.k.x.` z IXIXIXIXIXIXIXIXIXIXIXIXIXIXIXIX",
"IXIXIXIXIXIXIXIXIXIXIXIXIXIXGX5 R.iX&.{  . . .} ! !  ...p.x.x.9.^ 4.k.x.k.k.x.k.x.k.k.x.k.x.` z IXIXIXIXIXIXIXIXIXIXIXIXIXIXIXIX",
"IXIXIXIXIXIXIXIXIXIXIXIXIXIXGX5 R.tX&.I U U U ! ^ ^ U !  ...p.9.K { X.X.X.X.X.X...p.x.k.x.x.` z IXIXIXIXIXIXIXIXIXIXIXIXIXIXIXIX",
"IXIXIXIXIXIXIXIXIXIXIXIXIXIXGX5 R.pX&.W ^ ^ ^ ^ ^ ^ ^ ^ U K .. .^ ! U U U U U U ~ O.2.1.X.u.) z IXIXIXIXIXIXIXIXIXIXIXIXIXIXIXIX",
"IXIXIXIXIXIXIXIXIXIXIXIXIXIXGX5 R.pX&.I ^ ^ ^ ^ ^ ^ ^ ^ ^ ^ U ! ^ ^ ^ ^ ^ ^ { ( y 7 7 N +.9.) z IXIXIXIXIXIXIXIXIXIXIXIXIXIXIXIX",
"IXIXIXIXIXIXIXIXIXIXIXIXIXIXGX5 R.pX&.{ ..} ^ { | ..| | ..{ ! } ..| | ^ ! ^ ..{ $ |.l - N u.) x IXIXIXIXIXIXIXIXIXIXIXIXIXIXIXIX",
"IXIXIXIXIXIXIXIXIXIXIXIXIXIXGX5 R.uXV.N q N O.U y y y y y F ..N y y N ^ } { f ! = kXjXl 0 u.` l IXIXIXIXIXIXIXIXIXIXIXIXIXIXIXIX",
"IXIXIXIXIXIXIXIXIXIXIXIXIXIXGX< Q.pX%.9 4 v N w m m m m > N O.0 l z 3 O.} y c w v lXIX$X0 u.q.k 8XJXIXIXIXIXIXIXIXIXIXIXIXIXIXIX",
"IXIXIXIXIXIXIXIXIXIXIXIXIXIXHXM B wX(.e $XhXc .XIXIXIXIXz N O.t *XxXc Z f m ZXM cXIXIXM q 4.x.q.< GXIXIXIXIXIXIXIXIXIXIXIXIXIXIX",
"IXIXIXIXIXIXIXIXIXIXIXIXIXIXIXIXM b ~.c kXIXIXIXIXIXIXIX5 Z 3.w M IXlXz n LXIXIXIXIXIX;Xj Z ! D |.KXIXIXIXIXIXIXIXIXIXIXIXIXIXIX",
"IXIXIXIXIXIXIXIXIXIXIXIXIXIXIXIXIXM 5 <XIXIXIXIXIXIXIXIXn f ^ j =XIXIXIXIXIXIXIXIXIXIXIX1X5 5 m JXIXIXIXIXIXIXIXIXIXIXIXIXIXIXIX",
"IXIXIXIXIXIXIXIXIXIXIXIXIXIXIXIXIXGXFXJXIXIXIXIXIXIXIXIXGXn 1 =XHXIXIXIXIXIXIXIXIXIXIXIXJXFXFXFXIXIXIXIXIXIXIXIXIXIXIXIXIXIXIXIX",
"IXIXIXIXIXIXIXIXIXIXIXIXIXIXIXIXIXIXIXIXIXIXIXIXIXIXIXIXIXIXIXIXIXIXIXIXIXIXIXIXIXIXIXIXIXIXIXIXIXIXIXIXIXIXIXIXIXIXIXIXIXIXIXIX",
"IXIXIXIXIXIXIXIXIXIXIXIXIXIXIXIXIXIXIXIXIXIXIXIXIXIXIXIXIXIXIXIXIXIXIXIXIXIXIXIXIXIXIXIXIXIXIXIXIXIXIXIXIXIXIXIXIXIXIXIXIXIXIXIX"
};
