/* XPM */
static char *_532361825287[] = {
/* columns rows colors chars-per-pixel */
"16 16 195 2 ",
"   c #2B2E0C",
".  c #393900",
"X  c #000026",
"o  c #4B4B0E",
"O  c #595D02",
"+  c #56580E",
"@  c #4E421C",
"#  c #595618",
"$  c #615309",
"%  c #546500",
"&  c #6B650C",
"*  c #746100",
"=  c #7E7200",
"-  c #71710A",
";  c #7A6A11",
":  c #737619",
">  c #7B7319",
",  c #475921",
"<  c #575726",
"1  c #514B39",
"2  c #6A6123",
"3  c #747024",
"4  c #7B7836",
"5  c #2F2E54",
"6  c #2A2F5F",
"7  c #796943",
"8  c #626551",
"9  c #787D53",
"0  c #717158",
"q  c #404665",
"w  c #69676E",
"e  c #747C68",
"r  c #7E7C6D",
"t  c #7D7F6E",
"y  c #816C09",
"u  c #8D7D06",
"i  c #8E780B",
"p  c #957A00",
"a  c #907C00",
"s  c #937C0A",
"d  c #807531",
"f  c #807538",
"g  c #858409",
"h  c #89850B",
"j  c #8E8B0E",
"k  c #9C8007",
"l  c #9B8604",
"z  c #B28F04",
"x  c #AE9000",
"c  c #A89108",
"v  c #AC930F",
"b  c #B39304",
"n  c #B89C00",
"m  c #B89905",
"M  c #8BA00C",
"N  c #ADAF00",
"B  c #B8A000",
"V  c #BDA100",
"C  c #BCA300",
"Z  c #BCA006",
"A  c #BABE00",
"S  c #9D852B",
"D  c #929A3E",
"F  c #A88E22",
"G  c #BB9C37",
"H  c #99A22A",
"J  c #ACA826",
"K  c #C1A300",
"L  c #C8A500",
"P  c #C1A10C",
"I  c #CAB30B",
"U  c #CFB109",
"Y  c #D5B500",
"T  c #D8B709",
"R  c #D7B812",
"E  c #C0AC27",
"W  c #CDB322",
"Q  c #C0BF20",
"!  c #CEBB2E",
"~  c #C5BE37",
"^  c #BFCB08",
"/  c #BAC319",
"(  c #CCCD05",
")  c #C4C70F",
"_  c #DAC901",
"`  c #CFD704",
"'  c #D8DF02",
"]  c #DDC415",
"[  c #E1C300",
"{  c #E5D101",
"}  c #E6D202",
"|  c #ECD301",
" . c #EAD601",
".. c #E3DB00",
"X. c #E2DB03",
"o. c #E6DB01",
"O. c #E9D014",
"+. c #E6E800",
"@. c #E8E50D",
"#. c #F1EB00",
"$. c #F6ED00",
"%. c #F8E800",
"&. c #ECF302",
"*. c #F6F400",
"=. c #F6F500",
"-. c #FDF401",
";. c #F8F107",
":. c #F5FF02",
">. c #F9FD00",
",. c #FEFF00",
"<. c yellow",
"1. c #FCFF08",
"2. c #FFFF09",
"3. c #FFFF0D",
"4. c #E1E516",
"5. c #FFFF13",
"6. c #F8F916",
"7. c #CECC27",
"8. c #C0C13D",
"9. c #E1CE3C",
"0. c #EBD43D",
"q. c #FBDD3A",
"w. c #F1E623",
"e. c #FCFA28",
"r. c #FFFF3B",
"t. c #858D59",
"y. c #898858",
"u. c #A08B42",
"i. c #A2AA4A",
"p. c #888667",
"a. c #948F64",
"s. c #848775",
"d. c #80817B",
"f. c #818B7C",
"g. c #969274",
"h. c #A59779",
"j. c #D2BE49",
"k. c #D0BD4C",
"l. c #C1B75E",
"z. c #DCC553",
"x. c #ECCF45",
"c. c #FFEB49",
"v. c #FAE156",
"b. c #D1C57F",
"n. c #DED178",
"m. c #848589",
"M. c #939A93",
"N. c #999E97",
"B. c #93969A",
"V. c #A4A88E",
"C. c #B8B985",
"Z. c #A2A79D",
"A. c #A6A99F",
"S. c #ADB296",
"D. c #AEB09B",
"F. c #BFBD91",
"G. c #9A9FA7",
"H. c #9E96AF",
"J. c #9DA2A4",
"K. c #A3A6A2",
"L. c #A6AAA1",
"P. c #A8AAAC",
"I. c #B7BBBA",
"U. c #BDBEBF",
"Y. c #DACD85",
"T. c #D4CE92",
"R. c #F0E79D",
"E. c #C0C5BA",
"W. c #E9E9A0",
"Q. c #B4B8C1",
"!. c #BCBFC0",
"~. c #BBBBC4",
"^. c #AFA9DC",
"/. c #B5B7DF",
"(. c #8F87F3",
"). c #BEC2C6",
"_. c #BBC3CE",
"`. c #CDCDCB",
"'. c #CFD1D3",
"]. c #D0D2D2",
"[. c #D1D2D3",
"{. c #D9D9DD",
"}. c #DEDEE1",
"|. c #D4D5E8",
" X c #C7C5F4",
".X c #DBDBFC",
"XX c #E9EBEE",
"oX c #EDEEEF",
"OX c #E7E5FF",
"+X c #E6EAFF",
"@X c #ECEFF9",
"#X c #E9E9FF",
"$X c #F3F3F4",
"%X c gray96",
"&X c None",
/* pixels */
"&X&X&X&XQ.Z.0 < # : i.I.&X&X&X&X",
"&X&X&Xm.Y.q.c g - & $.1.A.&X&X&X",
"&X&XP.R.v.L n h + o a <.>.!.&X&X",
"&X@XD.c.x F $ O   . > @.<.H &X&X",
"&XU.n.P h..X/.1 = a. X^.6./ {.].",
"&X~.l.I H.+X#XG %.W.OX(.~ 4.) D ",
"d.y.b.w.B u.7 y l A 7.S b -.:.t.",
"t E k.! V Y p * u N <.K z X.M M.",
").d j.r.V R W v +.=.=.m m <.) }.",
"&X9 J T.9.2 q 6 X 5 3 U _ ' V.&X",
"&XE.% t x.@ g.C.4 F.8.;.7., L.&X",
"&XoX].s.O.T ] 5.1.3.<.<.` f.|.&X",
"&X&X&XB.e.#.o.<.<.<.<.&.e $X&X&X",
"&X&X&XG.0.[ |  .} } o.( oX&X&X&X",
"&X&X&XN.z.; 4 i s k w j S.&X&X&X",
"&X&X&X`.K.XX&X8 J.'.&Xp._.&X&X&X"
};
